<svg id="Layer_1" data-name="Layer 1" xmlns="http://www.w3.org/2000/svg" xmlns:xlink="http://www.w3.org/1999/xlink" viewBox="0 0 32 32"><defs><style>.cls-1{fill:#766458;}.cls-2{fill:url(#linear-gradient);}</style><linearGradient id="linear-gradient" x1="0.1" y1="15.47" x2="31.01" y2="15.47" gradientUnits="userSpaceOnUse"><stop offset="0" stop-color="#e8bd7c"/><stop offset="0.41" stop-color="#e8d1b0"/><stop offset="0.6" stop-color="#c68d3a"/><stop offset="1" stop-color="#e8c084"/></linearGradient></defs><title>dz-tab</title><path class="cls-1" d="M4.79,18.23h0a10.64,10.64,0,0,0-2.35,1.85h0a1.52,1.52,0,0,0-.44.68,1.07,1.07,0,0,0,.46.19,2.86,2.86,0,0,1,.32-.42h0a10.64,10.64,0,0,1,2.35-1.85h0A12.82,12.82,0,0,1,8.81,17L9,16.46A12.7,12.7,0,0,0,4.79,18.23Zm6.55-2-.45,1.4a1.65,1.65,0,0,1-.87.9,1.45,1.45,0,0,1-.75.26.77.77,0,0,1-.38-.1.74.74,0,0,0,.73.55,1.45,1.45,0,0,0,.75-.26,1.65,1.65,0,0,0,.87-.9l.45-1.4a8.28,8.28,0,0,1,2,.34l.28-.23A8.13,8.13,0,0,0,11.34,16.24ZM14.53,7.4V7.33a.73.73,0,0,0-.37-.54l0,.09v.07a1.11,1.11,0,0,1,0,.25v0L12,14.08l.48,0,2-6.42v0A1.11,1.11,0,0,0,14.53,7.4Zm4.61,6.25a16.36,16.36,0,0,1-1.57,2.14l.46.32a16.17,16.17,0,0,0,1.85-2.7Zm1.13,4.72h0L20,18a.94.94,0,0,1-.23,1.08,2.39,2.39,0,0,1-.75.58h0a1.27,1.27,0,0,1-.56.15.81.81,0,0,1-.64-.3,9.19,9.19,0,0,0-2.14-1.87,24.22,24.22,0,0,1-5,3.37,22.51,22.51,0,0,1-6,2c-.4.07-.74.13-1,.16s-.63.06-1,.07H2.31a4.6,4.6,0,0,1-1-.1,2.93,2.93,0,0,1-1-.42A2.26,2.26,0,0,1,0,22.56a2,2,0,0,0,.66.7,2.93,2.93,0,0,0,1,.42,4.6,4.6,0,0,0,1,.1h.25c.4,0,.75,0,1-.07s.62-.09,1-.16a22.51,22.51,0,0,0,6-2,24.22,24.22,0,0,0,5-3.37A9.19,9.19,0,0,1,18.16,20a.81.81,0,0,0,.64.3,1.27,1.27,0,0,0,.56-.15h0a2.39,2.39,0,0,0,.75-.58A.91.91,0,0,0,20.28,18.37Zm1-12a4.09,4.09,0,0,0-.79-1.55l-.12-.14A4,4,0,0,1,21,5.92a6.18,6.18,0,0,1,.18,1.74,9.59,9.59,0,0,1-.09,1l.41-.14q0-.22,0-.44A6.18,6.18,0,0,0,21.31,6.37Zm-3.39-.51A2.68,2.68,0,0,0,17,5.28,4,4,0,0,0,15.92,5a6.25,6.25,0,0,0-.65,0,5.53,5.53,0,0,0-.57,0,8.58,8.58,0,0,0-1.32.25c-.48.13-.93.27-1.35.43s-.86.35-1.34.58-.91.46-1.27.66l-1.2.68a1.41,1.41,0,0,1-.72.25.75.75,0,0,1-.37-.1.74.74,0,0,0,.72.55A1.41,1.41,0,0,0,8.57,8l1.2-.68c.36-.2.78-.41,1.27-.66s.93-.42,1.34-.58.87-.3,1.35-.43A8.58,8.58,0,0,1,15,5.46a5.53,5.53,0,0,1,.57,0,6.25,6.25,0,0,1,.65,0,4,4,0,0,1,1.1.27,2.68,2.68,0,0,1,.89.58l0,0A2.53,2.53,0,0,0,17.92,5.86Zm-.38,6.91a2,2,0,0,1-.19-.28.91.91,0,0,0,.62.25.83.83,0,0,0,.26,0l3.59-1.12c.9-.27,2-.58,3.31-.91s2.51-.6,3.59-.79h0l.24,0-.39.56c-1,.18-2,.42-3.1.7-1.3.34-2.42.64-3.31.91l-3.59,1.12a.83.83,0,0,1-.26,0A1,1,0,0,1,17.54,12.77ZM30.6,22.62a1.3,1.3,0,0,1,.3,1.07.74.74,0,0,1-.73.67.91.91,0,0,1-.61-.27l0,0-.13-.16-.05,0-.19,0H29a3.11,3.11,0,0,0-.69.08,10.14,10.14,0,0,0-1.2.38c-.48.17-.88.33-1.2.47l-1.12.51-.76.35c-.28.13-1,.46-2.72,1.35a27.17,27.17,0,0,1-3.42,1.53,2.85,2.85,0,0,1-.6.14h-.23a1.84,1.84,0,0,1-.4,0h0a1.11,1.11,0,0,1-.71-.53L15.9,28a1.11,1.11,0,0,0,.42.2h0a1.84,1.84,0,0,0,.4,0H17a2.85,2.85,0,0,0,.6-.14A27.17,27.17,0,0,0,21,26.52c1.73-.88,2.44-1.22,2.72-1.35l.76-.35,1.12-.51c.32-.14.72-.3,1.2-.47a10.14,10.14,0,0,1,1.2-.38,3.11,3.11,0,0,1,.69-.08h.15l.19,0,.05,0,.13.16,0,0a.91.91,0,0,0,.61.27.74.74,0,0,0,.73-.67,1.26,1.26,0,0,0-.14-.83Zm1.2-12.28-.31.68a5.85,5.85,0,0,1-.49.81l-.48.67-.45.6-.19.25c-.67.89-1.43,1.85-2.31,2.94S26,18.2,25.43,18.9l-2.51,3L21.4,23.66l-1.23.59.15-.18,2.24-2.65,2.51-3c.58-.7,1.3-1.57,2.13-2.6s1.64-2.06,2.31-2.94l.19-.25.45-.6.48-.67a5.85,5.85,0,0,0,.49-.81l.31-.68a1.8,1.8,0,0,0,.19-1,2,2,0,0,0-.18-.6,1.17,1.17,0,0,1,.3.36h0a2,2,0,0,1,.22.69A1.8,1.8,0,0,1,31.8,10.34ZM20.18,7.07"/><path class="cls-2" d="M20.34,6.08a3.44,3.44,0,0,0-.67-1.31,3.35,3.35,0,0,0-1.26-.94A4.94,4.94,0,0,0,17,3.44a7.28,7.28,0,0,0-.9-.06l-.62,0a9.72,9.72,0,0,0-1.59.29,15.64,15.64,0,0,0-1.59.51q-.74.28-1.57.68t-1.47.75c-.43.24-.88.49-1.36.78l-.15.12a.79.79,0,0,0-.36.55c0,.08,0,.12.11.12A.91.91,0,0,0,7.89,7l1.22-.7c.38-.21.82-.43,1.31-.67s1-.44,1.4-.6.91-.31,1.41-.45a9.16,9.16,0,0,1,1.42-.26,6.23,6.23,0,0,1,.64,0,6.68,6.68,0,0,1,.72,0,4.65,4.65,0,0,1,1.28.31,3.29,3.29,0,0,1,1.1.73,3,3,0,0,1,.67,1,4.75,4.75,0,0,1,.29,1.23,5.19,5.19,0,0,1,0,1.35l0,.26.41-.14.69-.23a8.69,8.69,0,0,0,.13-1.27A5.52,5.52,0,0,0,20.34,6.08ZM19.41,18.3a9.8,9.8,0,0,0-2.83-2.38,15.89,15.89,0,0,0,1.68-2.09,1.49,1.49,0,0,1-.68-.19,14,14,0,0,1-1.54,2,9.93,9.93,0,0,0-4.32-1h-.58l2.4-7.66a.47.47,0,0,0,0-.11.09.09,0,0,0-.11-.09,1.05,1.05,0,0,0-.43.17,1.26,1.26,0,0,0-.58.54l-2.25,7.23a13,13,0,0,0-4.64,1.6l-.47.28-.69.41c-.3.18-.58.36-.84.54l-.88.62a10.77,10.77,0,0,0-.87.69c-.25.23-.51.46-.76.71a3.51,3.51,0,0,0-.58.72,2.78,2.78,0,0,0-.3.69,1,1,0,0,0,0,.64,1.29,1.29,0,0,0,.49.55,2.29,2.29,0,0,0,.81.33,4,4,0,0,0,.84.08h.22q.58,0,1-.07t1-.15a21.76,21.76,0,0,0,5.87-2,23.46,23.46,0,0,0,5.23-3.58,9.79,9.79,0,0,1,2.71,2.26.17.17,0,0,0,.14.06.69.69,0,0,0,.28-.09,1.75,1.75,0,0,0,.55-.43C19.44,18.53,19.48,18.4,19.41,18.3Zm-8.3,1.17q-1,.54-2,1T7,21.21a12,12,0,0,1-2.25.47,9.41,9.41,0,0,1-1,.06,7.3,7.3,0,0,1-1.08-.08l-.09,0q-2-.37-.59-2a11.22,11.22,0,0,1,2.49-2,13.11,13.11,0,0,1,5.47-2.05L9.18,18a.21.21,0,0,0,0,.09.1.1,0,0,0,.11.09A1,1,0,0,0,9.7,18q.51-.28.58-.54l.59-1.86a8.78,8.78,0,0,1,3.56.72l.67.32A18.34,18.34,0,0,1,11.11,19.47ZM29.64,8.14a2.78,2.78,0,0,1,.74.08.72.72,0,0,1,.48.32A1.36,1.36,0,0,1,31,9a1.22,1.22,0,0,1-.14.62l-.3.66a5.29,5.29,0,0,1-.44.72l-.47.65-.46.61-.17.22q-1,1.35-2.31,2.95T24.59,18l-2.51,3-2.24,2.65q-1.41,1.68-2,2.38l-.07.08,1.11-.53.92-.45.37-.18,2.06-1q.74-.35,1.89-.82t2.12-.76l.75-.23a6.73,6.73,0,0,1,.75-.15,3.78,3.78,0,0,1,.59-.05h.18a2.14,2.14,0,0,1,.65.17,1.39,1.39,0,0,1,.56.44.67.67,0,0,1,.17.57c0,.09,0,.13-.1.13a.3.3,0,0,1-.18-.1L29.56,23a.91.91,0,0,0-.7-.3h-.19a3.72,3.72,0,0,0-.83.1,10.7,10.7,0,0,0-1.28.4q-.75.28-1.23.49l-1.13.52-.74.34q-.61.27-2.76,1.37a26.83,26.83,0,0,1-3.33,1.49,2.22,2.22,0,0,1-.47.11h-.15a1.2,1.2,0,0,1-.26,0,.46.46,0,0,1-.31-.23.85.85,0,0,1-.08-.5,1.49,1.49,0,0,1,.32-.68,9.79,9.79,0,0,1,.77-.91l.53-.57q1.08-1.31,4.08-4.87t4.59-5.53a47.37,47.37,0,0,0,3.44-4.5A2.09,2.09,0,0,0,30,9.25a3,3,0,0,0-.71,0,5.4,5.4,0,0,0-.7,0q-1.65.29-3.64.8T21.62,11L18,12.1H18a.39.39,0,0,1-.28-.18,1.09,1.09,0,0,1-.23-.44c0-.14,0-.24,0-.28l1.28-.42,1.32-.44,1.34-.44,1.35-.43,1.36-.4q.77-.22,1.36-.34l1.35-.28a12.2,12.2,0,0,1,1.33-.21l1.31-.12Z"/></svg>